<svg xmlns="http://www.w3.org/2000/svg" version="1.1" xmlns:xlink="http://www.w3.org/1999/xlink" xmlns:svgjs="http://svgjs.dev/svgjs" width="2000" height="1247" viewBox="0 0 2000 1247"><g transform="matrix(1,0,0,1,-1.2121212121212466,0.504858299595071)"><svg viewBox="0 0 396 247" data-background-color="#ffffff" preserveAspectRatio="xMidYMid meet" height="1247" width="2000" xmlns="http://www.w3.org/2000/svg" xmlns:xlink="http://www.w3.org/1999/xlink"><g id="tight-bounds" transform="matrix(1,0,0,1,0.2400000000000091,-0.09999999999999432)"><svg viewBox="0 0 395.52 247.2" height="247.2" width="395.52"><g><svg></svg></g><g><svg viewBox="0 0 395.52 247.2" height="247.2" width="395.52"><g transform="matrix(1,0,0,1,75.54432,93.3287574063203)"><svg viewBox="0 0 244.43135999999998 60.54248518735938" height="60.54248518735938" width="244.43135999999998"><g><svg viewBox="0 0 244.43135999999998 60.54248518735938" height="60.54248518735938" width="244.43135999999998"><g><svg viewBox="0 0 302.1522502673493 74.8392028589879" height="60.54248518735938" width="244.43135999999998"><g transform="matrix(1,0,0,1,57.72089026734933,21.947365982111712)"><svg viewBox="0 0 244.43135999999998 30.944470894764482" height="30.944470894764482" width="244.43135999999998"><g id="textblocktransform"><svg viewBox="0 0 244.43135999999998 30.944470894764482" height="30.944470894764482" width="244.43135999999998" id="textblock"><g><svg viewBox="0 0 244.43135999999998 30.944470894764482" height="30.944470894764482" width="244.43135999999998"><g transform="matrix(1,0,0,1,0,0)"><svg width="244.43135999999998" viewBox="3.65 -36.15 285.53000000000003 36.15" height="30.944470894764482" data-palette-color="#255617"><path d="M10.38-36.15L10.38-5.55 24.85-5.55 24.85 0 3.65 0 3.65-36.15 10.38-36.15ZM29.5-36.15L52.3-36.15 52.3-30.8 36.27-30.8 36.27-20.78 48.9-20.78 48.9-15.6 36.27-15.6 36.27-5.38 52.3-5.38 52.3 0 29.5 0 29.5-36.15ZM75.69-36.15L89.9 0 84.69 0Q83.82 0 83.26-0.44 82.69-0.88 82.44-1.53L82.44-1.53 79.75-8.9 64.77-8.9 62.07-1.53Q61.87-0.95 61.28-0.48 60.7 0 59.84 0L59.84 0 54.62 0 68.82-36.15 75.69-36.15ZM70.89-25.63L66.5-13.65 78.02-13.65 73.62-25.68Q73.32-26.48 72.96-27.56 72.59-28.65 72.25-29.93L72.25-29.93Q71.89-28.65 71.56-27.55 71.22-26.45 70.89-25.63L70.89-25.63ZM93.62-36.15L116.42-36.15 116.42-30.8 100.39-30.8 100.39-20.1 113.92-20.1 113.92-14.73 100.39-14.73 100.39 0 93.62 0 93.62-36.15ZM150.92-36.15L137.77-14.05 137.77 0 131.04 0 131.04-14.05 117.87-36.15 123.79-36.15Q124.67-36.15 125.18-35.73 125.69-35.3 126.04-34.65L126.04-34.65 132.67-22.58Q133.24-21.5 133.67-20.54 134.09-19.58 134.44-18.65L134.44-18.65Q134.77-19.6 135.18-20.56 135.59-21.53 136.17-22.58L136.17-22.58 142.74-34.65Q143.02-35.2 143.56-35.68 144.12-36.15 144.97-36.15L144.97-36.15 150.92-36.15ZM164.06-36.15L186.86-36.15 186.86-30.8 170.84-30.8 170.84-20.78 183.46-20.78 183.46-15.6 170.84-15.6 170.84-5.38 186.86-5.38 186.86 0 164.06 0 164.06-36.15ZM224.78-18.07L224.78-18.07Q224.78-14.1 223.46-10.78 222.13-7.45 219.73-5.05 217.33-2.65 213.96-1.33 210.58 0 206.48 0L206.48 0 192.68 0 192.68-36.15 206.48-36.15Q210.58-36.15 213.96-34.81 217.33-33.48 219.73-31.09 222.13-28.7 223.46-25.38 224.78-22.05 224.78-18.07ZM217.91-18.07L217.91-18.07Q217.91-21.05 217.11-23.41 216.31-25.78 214.83-27.41 213.36-29.05 211.25-29.93 209.13-30.8 206.48-30.8L206.48-30.8 199.46-30.8 199.46-5.35 206.48-5.35Q209.13-5.35 211.25-6.23 213.36-7.1 214.83-8.74 216.31-10.38 217.11-12.74 217.91-15.1 217.91-18.07ZM230.06-36.15L252.86-36.15 252.86-30.8 236.83-30.8 236.83-20.78 249.46-20.78 249.46-15.6 236.83-15.6 236.83-5.38 252.86-5.38 252.86 0 230.06 0 230.06-36.15ZM262.2-36.15L262.2-36.15Q262.65-36.15 262.95-36.11 263.25-36.08 263.49-35.96 263.73-35.85 263.95-35.64 264.18-35.43 264.45-35.08L264.45-35.08 283.43-10.9Q283.33-11.78 283.29-12.61 283.25-13.45 283.25-14.18L283.25-14.18 283.25-36.15 289.18-36.15 289.18 0 285.7 0Q284.9 0 284.38-0.25 283.85-0.5 283.35-1.15L283.35-1.15 264.45-25.23Q264.53-24.43 264.57-23.64 264.6-22.85 264.6-22.2L264.6-22.2 264.6 0 258.68 0 258.68-36.15 262.2-36.15Z" opacity="1" transform="matrix(1,0,0,1,0,0)" fill="#ffffff" class="wordmark-text-0" data-fill-palette-color="primary" id="text-0"></path></svg></g></svg></g></svg></g></svg></g><g><svg viewBox="0 0 50.41564335639691 74.8392028589879" height="74.8392028589879" width="50.41564335639691"><g><svg xmlns="http://www.w3.org/2000/svg" xmlns:xlink="http://www.w3.org/1999/xlink" version="1.1" x="0" y="0" viewBox="16.499 0.6295799587360253 66.53293443656385 98.76442004126396" enable-background="new 0 0 100 100" xml:space="preserve" height="74.8392028589879" width="50.41564335639691" class="icon-icon-0" data-fill-palette-color="accent" id="icon-0"><g fill="#255617" data-fill-palette-color="accent"><g fill="#255617" data-fill-palette-color="accent"><path d="M34.348 70.378c0 0-0.164-0.532-0.164-0.808 0-3.209 7.565-5.803 16.898-5.803 9.336 0 16.9 2.594 16.9 5.803 0 0.275-0.166 0.808-0.166 0.808s0-4.923-16.734-5.149C35.379 65.013 34.348 70.378 34.348 70.378" fill="#ffffff" data-fill-palette-color="accent"></path><path d="M67.816 70.378l-5.207 25.065c0 2.186-5.163 3.951-11.527 3.951-6.361 0-11.526-1.766-11.526-3.951l-5.208-25.065c1.133 2.819 8.193 4.997 16.734 4.997C59.625 75.375 66.686 73.197 67.816 70.378z" fill="#ffffff" data-fill-palette-color="accent"></path></g><g fill="#255617" data-fill-palette-color="accent"><path d="M17.301 22.626c0.116-0.269 0.295-0.598 0.556-1.015 1.779-2.834 7.297-8.044 8.791-12.095 0.689-1.869 2.716-5.75 4.869-7.706-0.408 1.303-1.07 4.405-2.083 10.145-1.196 6.775 0.437 13.069 2.104 17.278-1.07-1.927-2.299-3.803-3.31-4.429C26.939 23.991 20.453 22.914 17.301 22.626z" fill="#ffffff" data-fill-palette-color="accent"></path><path d="M17.168 51.79c0.033-0.312 0.222-0.794 0.676-1.53 3.027-4.887-0.374-12.377-0.52-12.681 0.779 0.14 1.928 0.282 3.567 0.416 9.768 0.793 8.698 5.623 8.698 5.623s0.131 8.021-2.455 8.785C22.614 53.727 18.816 52.37 17.168 51.79z" fill="#ffffff" data-fill-palette-color="accent"></path><path d="M26.639 56.392c-2.077 4.233-4.447 16.832-5.37 22.044-0.048-0.124-0.076-0.286-0.086-0.481-0.1-1.737-1.928-7.376-1.928-7.376s-1.938-0.662-0.245-4.406c2.181-4.803 0.487-10.334-0.458-12.712 2.084 0.51 4.86 0.057 5.404 0.198C24.797 53.878 29.278 51.002 26.639 56.392z" fill="#ffffff" data-fill-palette-color="accent"></path><path d="M17.148 35.747c3.174-3.903 1.001-11.074 0.938-11.712-0.04-0.463-1.063-0.046-0.967-0.828 0.938 0.249 2.335 0.575 4.315 0.991 14.357 3.03 10.792 13.301 10.417 15.497-0.339 1.999-3.417-1.946-12.128-3.376-0.488-0.083-2.3 0.09-3.224 0.38C16.62 36.453 16.831 36.138 17.148 35.747z" fill="#ffffff" data-fill-palette-color="accent"></path><path d="M37.927 58.645c-1.833 1.296-6.676 5.212-7.383 10.797-0.514 4.083-2.511 3.601-2.511 3.601l-5.379 5.266c0 0-0.735 0.742-1.167 0.456 1.76-4.329 6.884-17.288 7.405-22.244 0.612-5.996 2.878-1.117 3.7-0.844C33.187 55.871 35.719 58.205 37.927 58.645z" fill="#ffffff" data-fill-palette-color="accent"></path><path d="M30.736 19.987c0 0 1.646-16.091 1.284-18.598 2.353-1.781 4.735-0.896 5.559 7.751 0.933 9.838-3.279 20.765-3.264 23.217 1.224-1.979 3.035-12.752 10.303-21.323 5.743-6.771 7.925-6.354 8.627-3.664-1.867 2.521-8.586 16.204-8.586 16.204s-3.625 3.964-10.562 10.404c-0.005 0.005-0.005 0.005-0.005 0.005l-0.055 0.172C31.675 25.157 30.736 19.987 30.736 19.987z" fill="#ffffff" data-fill-palette-color="accent"></path><path d="M48.012 46.102c-0.24 0.904-1.106-0.002-1.106-0.002s-7.078 4.589-7.065 10.478c0.005 0.609-0.043 1.036-0.116 1.338-1.368-0.364-5.74-1.102-9.152-5.034-1.78-2.059 2.577-8.753 2.577-8.753s1.64-4.656 10.297 0.01C46.35 45.701 47.632 46.176 48.012 46.102z" fill="#ffffff" data-fill-palette-color="accent"></path><path d="M50.282 32.202c2.199 0.983 3.567 1.548 4.304 1.801-0.323 0.756-0.981-0.17-1.258 0.205-0.387 0.507-5.977 5.42-5.322 10.437 0.061 0.472 0.076 0.829 0.056 1.098-0.403-0.696-2.217-2.163-2.737-2.387-8.111-3.542-12.785-1.9-12.016-3.772C34.152 37.529 36.843 26.201 50.282 32.202z" fill="#ffffff" data-fill-palette-color="accent"></path><path d="M49.999 17.509c1.906-4.73 2.974-7.604 3.442-9.132 0.368 2.896-0.304 7.243-0.384 9.156-0.169 4.227 1.703 11.383 1.729 14.745 0.007 0.632-0.033 1.079-0.097 1.384-2.036-1.292-8.765-4.644-10.459-4.666-1.179-0.016-3.193 0.886-5.109 1.926C42.746 28.271 47.429 23.86 49.999 17.509z" fill="#ffffff" data-fill-palette-color="accent"></path></g><g fill="#255617" data-fill-palette-color="accent"><path d="M54.601 47.313c-0.019-0.233-0.02-0.528 0.003-0.917 0.147-2.641 1.889-8.3 1.414-11.703-0.215-1.568-0.281-5.042 0.429-7.196 0.197 1.069 0.873 3.503 2.262 7.931 1.636 5.228 4.949 9.104 7.537 11.493-1.387-0.984-2.857-1.874-3.738-1.959C61.376 44.844 56.76 46.395 54.601 47.313z" fill="#ffffff" data-fill-palette-color="accent"></path><path d="M64.925 68.024c-0.092-0.234-0.139-0.644-0.105-1.325 0.229-4.541-4.663-8.636-4.866-8.801 0.56-0.178 1.359-0.486 2.475-0.978 6.653-2.918 7.682 0.885 7.682 0.885s2.948 5.638 1.534 7.1C69.168 67.456 66.206 67.846 64.925 68.024z" fill="#ffffff" data-fill-palette-color="accent"></path><path d="M72.745 67.908c0.156 3.737 3.106 13.51 4.362 17.531-0.073-0.071-0.149-0.175-0.227-0.312-0.684-1.195-3.89-4.539-3.89-4.539s-1.502 0.223-1.731-3.03c-0.293-4.183-3.37-7.498-4.834-8.846 1.538-0.381 3.187-1.692 3.593-1.785C70.645 66.781 72.541 63.148 72.745 67.908z" fill="#ffffff" data-fill-palette-color="accent"></path><path d="M59.185 56.663c0.677-3.896-3.299-8.202-3.567-8.632-0.191-0.313-0.712 0.347-0.926-0.242 0.697-0.158 1.728-0.424 3.166-0.836 10.448-2.971 11.786 5.581 12.328 7.266 0.492 1.538-2.924-0.159-9.116 1.93-0.348 0.117-1.467 0.885-1.968 1.422C59.093 57.353 59.118 57.054 59.185 56.663z" fill="#ffffff" data-fill-palette-color="accent"></path><path d="M80.909 65.479c-0.73 1.573-2.493 6.072-0.96 10.281 1.123 3.078-0.352 3.447-0.352 3.447l-1.63 5.648c0 0-0.215 0.789-0.601 0.738-0.396-3.695-1.677-14.703-3.11-18.398-1.737-4.469 1.48-1.818 2.111-1.918C76.829 65.204 79.313 65.955 80.909 65.479z" fill="#ffffff" data-fill-palette-color="accent"></path><path d="M62.421 40.654c0 0-4.667-11.987-5.8-13.633 0.901-2.1 2.769-2.322 6.393 3.509 4.12 6.64 5.272 15.884 6.155 17.612 0.096-1.836-2.569-10.113-0.889-18.778 1.332-6.846 2.901-7.328 4.322-5.672-0.32 2.452 0.179 14.54 0.179 14.54s-0.947 4.102-3.172 11.136c-0.005 0.005-0.005 0.005-0.005 0.005l0.03 0.14C64.882 43.984 62.421 40.654 62.421 40.654z" fill="#ffffff" data-fill-palette-color="accent"></path><path d="M83.011 53.001c0.167 0.724-0.72 0.389-0.72 0.389s-2.981 5.774-0.871 9.943c0.221 0.43 0.345 0.749 0.404 0.989-1.023 0.23-4.137 1.267-7.768-0.305-1.895-0.826-1.444-7.119-1.444-7.119s-0.592-3.883 6.722-3.663C81.784 53.308 82.788 53.188 83.011 53.001z" fill="#ffffff" data-fill-palette-color="accent"></path><path d="M79.53 42.343c1.787-0.087 2.88-0.175 3.452-0.26 0.058 0.652-0.701 0.232-0.747 0.595-0.073 0.498-1.967 5.972 0.251 9.292 0.211 0.312 0.347 0.56 0.431 0.758-0.513-0.352-2.219-0.745-2.64-0.716-6.551 0.38-9.016 3.21-9.182 1.61C70.914 51.867 68.625 42.88 79.53 42.343z" fill="#ffffff" data-fill-palette-color="accent"></path><path d="M74.101 32.032c-0.444-4.028-0.773-6.446-1.013-7.695 1.271 1.92 2.387 5.24 3.018 6.624 1.399 3.056 5.172 7.458 6.392 9.831 0.229 0.444 0.362 0.775 0.43 1.014-1.788-0.188-7.374-0.165-8.489 0.424-0.772 0.408-1.764 1.765-2.643 3.186C73.212 42.244 74.696 37.448 74.101 32.032z" fill="#ffffff" data-fill-palette-color="accent"></path></g><path d="M48.248 69.313c0 0 1.932 3.079 4.998 0.377 0 0 5.374-18.854 11.458-21.595 0 0-9.549 3.529-13.19 16.726 0 0-2.439-15.048-8.079-19.225-5.643-4.178-1.648 0.201-1.648 0.201S48.433 57.648 48.248 69.313z" fill="#ffffff" data-fill-palette-color="accent"></path></g></svg></g></svg></g></svg></g></svg></g></svg></g><path d="M202.657 87.329L202.657 22.299 0.056 22.299 0.056 224.901 202.657 224.901 202.657 159.871 200.4 159.871 200.4 222.643 2.314 222.643 2.314 24.557 200.4 24.557 200.4 87.329Z" fill="#ffffff" stroke="transparent" data-fill-palette-color="tertiary"></path></svg></g><defs></defs></svg><rect width="395.52" height="247.2" fill="none" stroke="none" visibility="hidden"></rect></g></svg></g></svg>